#!OML:ASF E:\motion texture\Top Level 1\Subject 1\Session 1\male.ASF
:FULLY-SPECIFIED
:DEGREES
491
root -24.3698 17.979 -0.206069 7.63672 -87.1299 0.833589
lowerback -1.89663 -5.30102 -0.797878
upperback -2.48825 -7.10076 3.64758
thorax -0.941401 -3.54828 4.08976
lowerneck -11.422 -9.97468 -12.7119
upperneck 12.5214 -12.6778 8.34316
head 7.04855 -6.12509 3.40135
rclavicle -5.73991e-014 2.46493e-014
rhumerus -32.1446 -2.77601 -81.0113
rradius 56.002
rwrist 5.99792
rhand -18.5898 -25.4152
rfingers 7.12502
rthumb 7.70109 -55.2549
lclavicle -5.73991e-014 2.46493e-014
lhumerus -15.5959 -7.6501 91.0702
lradius 43.9283
lwrist -4.77944
lhand -12.7978 27.6125
lfingers 7.12502
lthumb 13.2881 57.1689
rfemur -32.2246 -3.00404 22.6637
rtibia 20.2995
rfoot -6.97815 -21.1108
rtoes 0.983253
lfemur -1.24712 0.743322 -22.2429
ltibia 14.8014
lfoot -11.746 -1.44645
ltoes -7.05301
492
root -24.4913 17.97 -0.186824 7.32025 -86.9105 1.29563
lowerback -1.95392 -5.37013 -0.792844
upperback -2.51951 -7.19378 3.6713
thorax -0.932239 -3.59518 4.10485
lowerneck -11.4463 -9.99491 -12.7038
upperneck 12.3945 -12.6973 8.37511
head 7.01548 -6.13011 3.40832
rclavicle 8.15017e-015 1.59028e-015
rhumerus -32.2331 -2.52339 -81.2023
rradius 56.6562
rwrist 6.22338
rhand -18.67 -25.2826
rfingers 7.12502
rthumb 7.6237 -55.1252
lclavicle 8.15017e-015 1.59028e-015
lhumerus -15.3696 -8.49205 91.5188
lradius 44.3324
lwrist -4.00362
lhand -12.706 27.8485
lfingers 7.12502
lthumb 13.3766 57.3991
rfemur -32.2658 -3.06397 22.8428
rtibia 19.4938
rfoot -6.85786 -21.248
rtoes 1.56269
lfemur -1.14431 0.802702 -22.2481
ltibia 15.0999
lfoot -11.8332 -1.74196
ltoes -7.36237
493
root -24.6134 17.9614 -0.167839 7.16796 -86.6957 1.58778
lowerback -2.00454 -5.43861 -0.777318
upperback -2.54682 -7.28606 3.69648
thorax -0.923828 -3.64186 4.11604
lowerneck -11.4718 -10.0135 -12.6951
upperneck 12.2656 -12.7142 8.40653
head 6.98167 -6.1339 3.41536
rclavicle -3.43401e-014 4.53229e-014
rhumerus -32.2965 -2.26076 -81.3845
rradius 57.307
rwrist 6.45594
rhand -18.7603 -25.1491
rfingers 7.12502
rthumb 7.53654 -54.9948
lclavicle -3.43401e-014 4.53229e-014
lhumerus -15.1474 -9.32421 91.9701
lradius 44.7147
lwrist -3.245
lhand -12.6176 28.0944
lfingers 7.12502
lthumb 13.4618 57.6394
rfemur -32.2992 -3.10984 23.0188
rtibia 18.7868
rfoot -6.71854 -21.3947
rtoes 2.21427
lfemur -1.06936 0.862375 -22.238
ltibia 15.4556
lfoot -11.8958 -2.04595
ltoes -7.70445
494
root -24.7363 17.9533 -0.149126 7.13521 -86.4851 1.75247
lowerback -2.04797 -5.50652 -0.752399
upperback -2.56933 -7.37767 3.72268
thorax -0.915537 -3.68834 4.12351
lowerneck -11.4981 -10.0301 -12.6848
upperneck 12.1355 -12.7282 8.43627
head 6.94705 -6.13638 3.42201
rclavicle 4.96962e-014 -4.6118e-014
rhumerus -32.335 -1.98946 -81.5573
rradius 57.9546
rwrist 6.69647
rhand -18.8509 -25.0255
rfingers 7.12502
rthumb 7.44911 -54.8743
lclavicle 4.96962e-014 -4.6118e-014
lhumerus -14.9275 -10.1498 92.4232
lradius 45.0741
lwrist -2.50172
lhand -12.5332 28.3483
lfingers 7.12502
lthumb 13.5431 57.8879
rfemur -32.3219 -3.1436 23.191
rtibia 18.1769
rfoot -6.56161 -21.548
rtoes 2.93493
lfemur -1.02182 0.922429 -22.2125
ltibia 15.8701
lfoot -11.9296 -2.36128
ltoes -8.07161
495
root -24.86 17.9457 -0.130699 7.2482 -86.2809 1.7632
lowerback -2.08394 -5.5728 -0.71534
upperback -2.58726 -7.46723 3.75071
thorax -0.908131 -3.73396 4.12671
lowerneck -11.5245 -10.0448 -12.6734
upperneck 12.0049 -12.7396 8.46434
head 6.91189 -6.13772 3.42832
rclavicle 8.3092e-014 -2.54444e-014
rhumerus -32.3478 -1.70943 -81.7204
rradius 58.5987
rwrist 6.94296
rhand -18.9496 -24.9025
rfingers 7.12502
rthumb 7.3538 -54.7547
lclavicle 8.3092e-014 -2.54444e-014
lhumerus -14.7106 -10.9678 92.8789
lradius 45.4114
lwrist -1.77677
lhand -12.4504 28.6088
lfingers 7.12502
lthumb 13.6229 58.143
rfemur -32.3339 -3.16265 23.3626
rtibia 17.6626
rfoot -6.38804 -21.7043
rtoes 3.72136
lfemur -1.00358 0.982482 -22.1677
ltibia 16.3439
lfoot -11.9264 -2.6883
ltoes -8.45884
